#define clock_mini_icon_mask_width 256
#define clock_mini_icon_mask_height 256
static unsigned short clock_mini_icon_mask_bits[] = {
   0x0000, 0x0000, 0x0000, 0x0000, 0x0000, 0x0000, 0xffff, 0xffff, 0xffff,
   0xffff, 0x0000, 0x0000, 0x0000, 0x0000, 0x0000, 0x0000, 0x0000, 0x0000,
   0x0000, 0x0000, 0x0000, 0x0000, 0xffff, 0xffff, 0xffff, 0xffff, 0x0000,
   0x0000, 0x0000, 0x0000, 0x0000, 0x0000, 0x0000, 0x0000, 0x0000, 0x0000,
   0x0000, 0x0000, 0xffff, 0xffff, 0xffff, 0xffff, 0x0000, 0x0000, 0x0000,
   0x0000, 0x0000, 0x0000, 0x0000, 0x0000, 0x0000, 0x0000, 0x0000, 0x0000,
   0xffff, 0xffff, 0xffff, 0xffff, 0x0000, 0x0000, 0x0000, 0x0000, 0x0000,
   0x0000, 0x0000, 0x0000, 0x0000, 0x0000, 0x0000, 0x0000, 0xffff, 0xffff,
   0xffff, 0xffff, 0x0000, 0x0000, 0x0000, 0x0000, 0x0000, 0x0000, 0x0000,
   0x0000, 0x0000, 0x0000, 0x0000, 0x0000, 0xffff, 0xffff, 0xffff, 0xffff,
   0x0000, 0x0000, 0x0000, 0x0000, 0x0000, 0x0000, 0x0000, 0x0000, 0x0000,
   0x0000, 0x0000, 0x0000, 0xffff, 0xffff, 0xffff, 0xffff, 0x0000, 0x0000,
   0x0000, 0x0000, 0x0000, 0x0000, 0x0000, 0x0000, 0x0000, 0x0000, 0x0000,
   0x0000, 0xffff, 0xffff, 0xffff, 0xffff, 0x0000, 0x0000, 0x0000, 0x0000,
   0x0000, 0x0000, 0x0000, 0x0000, 0x0000, 0x0000, 0xff00, 0xffff, 0x00ff,
   0x0000, 0x0000, 0xff00, 0xffff, 0x00ff, 0x0000, 0x0000, 0x0000, 0x0000,
   0x0000, 0x0000, 0x0000, 0x0000, 0xff00, 0xffff, 0x00ff, 0x0000, 0x0000,
   0xff00, 0xffff, 0x00ff, 0x0000, 0x0000, 0x0000, 0x0000, 0x0000, 0x0000,
   0x0000, 0x0000, 0xff00, 0xffff, 0x00ff, 0x0000, 0x0000, 0xff00, 0xffff,
   0x00ff, 0x0000, 0x0000, 0x0000, 0x0000, 0x0000, 0x0000, 0x0000, 0x0000,
   0xff00, 0xffff, 0x00ff, 0x0000, 0x0000, 0xff00, 0xffff, 0x00ff, 0x0000,
   0x0000, 0x0000, 0x0000, 0x0000, 0x0000, 0x0000, 0x0000, 0xff00, 0xffff,
   0x00ff, 0x0000, 0x0000, 0xff00, 0xffff, 0x00ff, 0x0000, 0x0000, 0x0000,
   0x0000, 0x0000, 0x0000, 0x0000, 0x0000, 0xff00, 0xffff, 0x00ff, 0x0000,
   0x0000, 0xff00, 0xffff, 0x00ff, 0x0000, 0x0000, 0x0000, 0x0000, 0x0000,
   0x0000, 0x0000, 0x0000, 0xff00, 0xffff, 0x00ff, 0x0000, 0x0000, 0xff00,
   0xffff, 0x00ff, 0x0000, 0x0000, 0x0000, 0x0000, 0x0000, 0x0000, 0x0000,
   0x0000, 0xff00, 0xffff, 0x00ff, 0x0000, 0x0000, 0xff00, 0xffff, 0x00ff,
   0x0000, 0x0000, 0x0000, 0x0000, 0x0000, 0x0000, 0x0000, 0xff00, 0xffff,
   0x0000, 0x0000, 0x0000, 0x0000, 0x0000, 0x0000, 0xffff, 0x00ff, 0x0000,
   0x0000, 0x0000, 0x0000, 0x0000, 0x0000, 0xff00, 0xffff, 0x0000, 0x0000,
   0x0000, 0x0000, 0x0000, 0x0000, 0xffff, 0x00ff, 0x0000, 0x0000, 0x0000,
   0x0000, 0x0000, 0x0000, 0xff00, 0xffff, 0x0000, 0x0000, 0x0000, 0x0000,
   0x0000, 0x0000, 0xffff, 0x00ff, 0x0000, 0x0000, 0x0000, 0x0000, 0x0000,
   0x0000, 0xff00, 0xffff, 0x0000, 0x0000, 0x0000, 0x0000, 0x0000, 0x0000,
   0xffff, 0x00ff, 0x0000, 0x0000, 0x0000, 0x0000, 0x0000, 0x0000, 0xff00,
   0xffff, 0x0000, 0x0000, 0x0000, 0x0000, 0x0000, 0x0000, 0xffff, 0x00ff,
   0x0000, 0x0000, 0x0000, 0x0000, 0x0000, 0x0000, 0xff00, 0xffff, 0x0000,
   0x0000, 0x0000, 0x0000, 0x0000, 0x0000, 0xffff, 0x00ff, 0x0000, 0x0000,
   0x0000, 0x0000, 0x0000, 0x0000, 0xff00, 0xffff, 0x0000, 0x0000, 0x0000,
   0x0000, 0x0000, 0x0000, 0xffff, 0x00ff, 0x0000, 0x0000, 0x0000, 0x0000,
   0x0000, 0x0000, 0xff00, 0xffff, 0x0000, 0x0000, 0x0000, 0x0000, 0x0000,
   0x0000, 0xffff, 0x00ff, 0x0000, 0x0000, 0x0000, 0x0000, 0x0000, 0x0000,
   0xffff, 0x0000, 0x0000, 0xff00, 0xffff, 0xffff, 0x00ff, 0x0000, 0x0000,
   0xffff, 0x0000, 0x0000, 0x0000, 0x0000, 0x0000, 0x0000, 0xffff, 0x0000,
   0x0000, 0xff00, 0xffff, 0xffff, 0x00ff, 0x0000, 0x0000, 0xffff, 0x0000,
   0x0000, 0x0000, 0x0000, 0x0000, 0x0000, 0xffff, 0x0000, 0x0000, 0xff00,
   0xffff, 0xffff, 0x00ff, 0x0000, 0x0000, 0xffff, 0x0000, 0x0000, 0x0000,
   0x0000, 0x0000, 0x0000, 0xffff, 0x0000, 0x0000, 0xff00, 0xffff, 0xffff,
   0x00ff, 0x0000, 0x0000, 0xffff, 0x0000, 0x0000, 0x0000, 0x0000, 0x0000,
   0x0000, 0xffff, 0x0000, 0x0000, 0xff00, 0xffff, 0xffff, 0x00ff, 0x0000,
   0x0000, 0xffff, 0x0000, 0x0000, 0x0000, 0x0000, 0x0000, 0x0000, 0xffff,
   0x0000, 0x0000, 0xff00, 0xffff, 0xffff, 0x00ff, 0x0000, 0x0000, 0xffff,
   0x0000, 0x0000, 0x0000, 0x0000, 0x0000, 0x0000, 0xffff, 0x0000, 0x0000,
   0xff00, 0xffff, 0xffff, 0x00ff, 0x0000, 0x0000, 0xffff, 0x0000, 0x0000,
   0x0000, 0x0000, 0x0000, 0x0000, 0xffff, 0x0000, 0x0000, 0xff00, 0xffff,
   0xffff, 0x00ff, 0x0000, 0x0000, 0xffff, 0x0000, 0x0000, 0x0000, 0x0000,
   0x0000, 0xff00, 0x00ff, 0x0000, 0xffff, 0xffff, 0xffff, 0xffff, 0xffff,
   0xffff, 0x0000, 0xff00, 0x00ff, 0x0000, 0x0000, 0x0000, 0x0000, 0xff00,
   0x00ff, 0x0000, 0xffff, 0xffff, 0xffff, 0xffff, 0xffff, 0xffff, 0x0000,
   0xff00, 0x00ff, 0x0000, 0x0000, 0x0000, 0x0000, 0xff00, 0x00ff, 0x0000,
   0xffff, 0xffff, 0xffff, 0xffff, 0xffff, 0xffff, 0x0000, 0xff00, 0x00ff,
   0x0000, 0x0000, 0x0000, 0x0000, 0xff00, 0x00ff, 0x0000, 0xffff, 0xffff,
   0xffff, 0xffff, 0xffff, 0xffff, 0x0000, 0xff00, 0x00ff, 0x0000, 0x0000,
   0x0000, 0x0000, 0xff00, 0x00ff, 0x0000, 0xffff, 0xffff, 0xffff, 0xffff,
   0xffff, 0xffff, 0x0000, 0xff00, 0x00ff, 0x0000, 0x0000, 0x0000, 0x0000,
   0xff00, 0x00ff, 0x0000, 0xffff, 0xffff, 0xffff, 0xffff, 0xffff, 0xffff,
   0x0000, 0xff00, 0x00ff, 0x0000, 0x0000, 0x0000, 0x0000, 0xff00, 0x00ff,
   0x0000, 0xffff, 0xffff, 0xffff, 0xffff, 0xffff, 0xffff, 0x0000, 0xff00,
   0x00ff, 0x0000, 0x0000, 0x0000, 0x0000, 0xff00, 0x00ff, 0x0000, 0xffff,
   0xffff, 0xffff, 0xffff, 0xffff, 0xffff, 0x0000, 0xff00, 0x00ff, 0x0000,
   0x0000, 0x0000, 0x0000, 0xffff, 0x0000, 0xff00, 0xffff, 0xffff, 0xffff,
   0xffff, 0xffff, 0xffff, 0x00ff, 0x0000, 0xffff, 0x0000, 0x0000, 0x0000,
   0x0000, 0xffff, 0x0000, 0xff00, 0xffff, 0xffff, 0xffff, 0xffff, 0xffff,
   0xffff, 0x00ff, 0x0000, 0xffff, 0x0000, 0x0000, 0x0000, 0x0000, 0xffff,
   0x0000, 0xff00, 0xffff, 0xffff, 0xffff, 0xffff, 0xffff, 0xffff, 0x00ff,
   0x0000, 0xffff, 0x0000, 0x0000, 0x0000, 0x0000, 0xffff, 0x0000, 0xff00,
   0xffff, 0xffff, 0xffff, 0xffff, 0xffff, 0xffff, 0x00ff, 0x0000, 0xffff,
   0x0000, 0x0000, 0x0000, 0x0000, 0xffff, 0x0000, 0xff00, 0xffff, 0xffff,
   0xffff, 0xffff, 0xffff, 0xffff, 0x00ff, 0x0000, 0xffff, 0x0000, 0x0000,
   0x0000, 0x0000, 0xffff, 0x0000, 0xff00, 0xffff, 0xffff, 0xffff, 0xffff,
   0xffff, 0xffff, 0x00ff, 0x0000, 0xffff, 0x0000, 0x0000, 0x0000, 0x0000,
   0xffff, 0x0000, 0xff00, 0xffff, 0xffff, 0xffff, 0xffff, 0xffff, 0xffff,
   0x00ff, 0x0000, 0xffff, 0x0000, 0x0000, 0x0000, 0x0000, 0xffff, 0x0000,
   0xff00, 0xffff, 0xffff, 0xffff, 0xffff, 0xffff, 0xffff, 0x00ff, 0x0000,
   0xffff, 0x0000, 0x0000, 0x0000, 0xff00, 0x00ff, 0xff00, 0xffff, 0xffff,
   0xffff, 0x00ff, 0xff00, 0xffff, 0xffff, 0xffff, 0x00ff, 0xff00, 0x00ff,
   0x0000, 0x0000, 0xff00, 0x00ff, 0xff00, 0xffff, 0xffff, 0xffff, 0x00ff,
   0xff00, 0xffff, 0xffff, 0xffff, 0x00ff, 0xff00, 0x00ff, 0x0000, 0x0000,
   0xff00, 0x00ff, 0xff00, 0xffff, 0xffff, 0xffff, 0x00ff, 0xff00, 0xffff,
   0xffff, 0xffff, 0x00ff, 0xff00, 0x00ff, 0x0000, 0x0000, 0xff00, 0x00ff,
   0xff00, 0xffff, 0xffff, 0xffff, 0x00ff, 0xff00, 0xffff, 0xffff, 0xffff,
   0x00ff, 0xff00, 0x00ff, 0x0000, 0x0000, 0xff00, 0x00ff, 0xff00, 0xffff,
   0xffff, 0xffff, 0x00ff, 0xff00, 0xffff, 0xffff, 0xffff, 0x00ff, 0xff00,
   0x00ff, 0x0000, 0x0000, 0xff00, 0x00ff, 0xff00, 0xffff, 0xffff, 0xffff,
   0x00ff, 0xff00, 0xffff, 0xffff, 0xffff, 0x00ff, 0xff00, 0x00ff, 0x0000,
   0x0000, 0xff00, 0x00ff, 0xff00, 0xffff, 0xffff, 0xffff, 0x00ff, 0xff00,
   0xffff, 0xffff, 0xffff, 0x00ff, 0xff00, 0x00ff, 0x0000, 0x0000, 0xff00,
   0x00ff, 0xff00, 0xffff, 0xffff, 0xffff, 0x00ff, 0xff00, 0xffff, 0xffff,
   0xffff, 0x00ff, 0xff00, 0x00ff, 0x0000, 0x0000, 0xffff, 0x0000, 0xffff,
   0xffff, 0xffff, 0xffff, 0x00ff, 0xff00, 0xffff, 0xffff, 0xffff, 0xffff,
   0x0000, 0xffff, 0x0000, 0x0000, 0xffff, 0x0000, 0xffff, 0xffff, 0xffff,
   0xffff, 0x00ff, 0xff00, 0xffff, 0xffff, 0xffff, 0xffff, 0x0000, 0xffff,
   0x0000, 0x0000, 0xffff, 0x0000, 0xffff, 0xffff, 0xffff, 0xffff, 0x00ff,
   0xff00, 0xffff, 0xffff, 0xffff, 0xffff, 0x0000, 0xffff, 0x0000, 0x0000,
   0xffff, 0x0000, 0xffff, 0xffff, 0xffff, 0xffff, 0x00ff, 0xff00, 0xffff,
   0xffff, 0xffff, 0xffff, 0x0000, 0xffff, 0x0000, 0x0000, 0xffff, 0x0000,
   0xffff, 0xffff, 0xffff, 0xffff, 0x00ff, 0xff00, 0xffff, 0xffff, 0xffff,
   0xffff, 0x0000, 0xffff, 0x0000, 0x0000, 0xffff, 0x0000, 0xffff, 0xffff,
   0xffff, 0xffff, 0x00ff, 0xff00, 0xffff, 0xffff, 0xffff, 0xffff, 0x0000,
   0xffff, 0x0000, 0x0000, 0xffff, 0x0000, 0xffff, 0xffff, 0xffff, 0xffff,
   0x00ff, 0xff00, 0xffff, 0xffff, 0xffff, 0xffff, 0x0000, 0xffff, 0x0000,
   0x0000, 0xffff, 0x0000, 0xffff, 0xffff, 0xffff, 0xffff, 0x00ff, 0xff00,
   0xffff, 0xffff, 0xffff, 0xffff, 0x0000, 0xffff, 0x0000, 0x0000, 0x00ff,
   0x0000, 0xffff, 0xffff, 0xffff, 0xffff, 0x00ff, 0xff00, 0xffff, 0xffff,
   0xffff, 0xffff, 0x0000, 0xff00, 0x0000, 0x0000, 0x00ff, 0x0000, 0xffff,
   0xffff, 0xffff, 0xffff, 0x00ff, 0xff00, 0xffff, 0xffff, 0xffff, 0xffff,
   0x0000, 0xff00, 0x0000, 0x0000, 0x00ff, 0x0000, 0xffff, 0xffff, 0xffff,
   0xffff, 0x00ff, 0xff00, 0xffff, 0xffff, 0xffff, 0xffff, 0x0000, 0xff00,
   0x0000, 0x0000, 0x00ff, 0x0000, 0xffff, 0xffff, 0xffff, 0xffff, 0x00ff,
   0xff00, 0xffff, 0xffff, 0xffff, 0xffff, 0x0000, 0xff00, 0x0000, 0x0000,
   0x00ff, 0x0000, 0xffff, 0xffff, 0xffff, 0xffff, 0x00ff, 0xff00, 0xffff,
   0xffff, 0xffff, 0xffff, 0x0000, 0xff00, 0x0000, 0x0000, 0x00ff, 0x0000,
   0xffff, 0xffff, 0xffff, 0xffff, 0x00ff, 0xff00, 0xffff, 0xffff, 0xffff,
   0xffff, 0x0000, 0xff00, 0x0000, 0x0000, 0x00ff, 0x0000, 0xffff, 0xffff,
   0xffff, 0xffff, 0x00ff, 0xff00, 0xffff, 0xffff, 0xffff, 0xffff, 0x0000,
   0xff00, 0x0000, 0x0000, 0x00ff, 0x0000, 0xffff, 0xffff, 0xffff, 0xffff,
   0x00ff, 0xff00, 0xffff, 0xffff, 0xffff, 0xffff, 0x0000, 0xff00, 0x0000,
   0xff00, 0x00ff, 0xff00, 0xffff, 0xffff, 0xffff, 0xffff, 0x00ff, 0xff00,
   0xffff, 0xffff, 0xffff, 0xffff, 0x00ff, 0xff00, 0x00ff, 0xff00, 0x00ff,
   0xff00, 0xffff, 0xffff, 0xffff, 0xffff, 0x00ff, 0xff00, 0xffff, 0xffff,
   0xffff, 0xffff, 0x00ff, 0xff00, 0x00ff, 0xff00, 0x00ff, 0xff00, 0xffff,
   0xffff, 0xffff, 0xffff, 0x00ff, 0xff00, 0xffff, 0xffff, 0xffff, 0xffff,
   0x00ff, 0xff00, 0x00ff, 0xff00, 0x00ff, 0xff00, 0xffff, 0xffff, 0xffff,
   0xffff, 0x00ff, 0xff00, 0xffff, 0xffff, 0xffff, 0xffff, 0x00ff, 0xff00,
   0x00ff, 0xff00, 0x00ff, 0xff00, 0xffff, 0xffff, 0xffff, 0xffff, 0x00ff,
   0xff00, 0xffff, 0xffff, 0xffff, 0xffff, 0x00ff, 0xff00, 0x00ff, 0xff00,
   0x00ff, 0xff00, 0xffff, 0xffff, 0xffff, 0xffff, 0x00ff, 0xff00, 0xffff,
   0xffff, 0xffff, 0xffff, 0x00ff, 0xff00, 0x00ff, 0xff00, 0x00ff, 0xff00,
   0xffff, 0xffff, 0xffff, 0xffff, 0x00ff, 0xff00, 0xffff, 0xffff, 0xffff,
   0xffff, 0x00ff, 0xff00, 0x00ff, 0xff00, 0x00ff, 0xff00, 0xffff, 0xffff,
   0xffff, 0xffff, 0x00ff, 0xff00, 0xffff, 0xffff, 0xffff, 0xffff, 0x00ff,
   0xff00, 0x00ff, 0xff00, 0x0000, 0xffff, 0xffff, 0xffff, 0xffff, 0xffff,
   0x00ff, 0xff00, 0xffff, 0xffff, 0xffff, 0xffff, 0xffff, 0x0000, 0x00ff,
   0xff00, 0x0000, 0xffff, 0xffff, 0xffff, 0xffff, 0xffff, 0x00ff, 0xff00,
   0xffff, 0xffff, 0xffff, 0xffff, 0xffff, 0x0000, 0x00ff, 0xff00, 0x0000,
   0xffff, 0xffff, 0xffff, 0xffff, 0xffff, 0x00ff, 0xff00, 0xffff, 0xffff,
   0xffff, 0xffff, 0xffff, 0x0000, 0x00ff, 0xff00, 0x0000, 0xffff, 0xffff,
   0xffff, 0xffff, 0xffff, 0x00ff, 0xff00, 0xffff, 0xffff, 0xffff, 0xffff,
   0xffff, 0x0000, 0x00ff, 0xff00, 0x0000, 0xffff, 0xffff, 0xffff, 0xffff,
   0xffff, 0x00ff, 0xff00, 0xffff, 0xffff, 0xffff, 0xffff, 0xffff, 0x0000,
   0x00ff, 0xff00, 0x0000, 0xffff, 0xffff, 0xffff, 0xffff, 0xffff, 0x00ff,
   0xff00, 0xffff, 0xffff, 0xffff, 0xffff, 0xffff, 0x0000, 0x00ff, 0xff00,
   0x0000, 0xffff, 0xffff, 0xffff, 0xffff, 0xffff, 0x00ff, 0xff00, 0xffff,
   0xffff, 0xffff, 0xffff, 0xffff, 0x0000, 0x00ff, 0xff00, 0x0000, 0xffff,
   0xffff, 0xffff, 0xffff, 0xffff, 0x00ff, 0xff00, 0xffff, 0xffff, 0xffff,
   0xffff, 0xffff, 0x0000, 0x00ff, 0xff00, 0x0000, 0xffff, 0xffff, 0xffff,
   0xffff, 0xffff, 0x00ff, 0xff00, 0xffff, 0xffff, 0xffff, 0xffff, 0xffff,
   0x0000, 0x00ff, 0xff00, 0x0000, 0xffff, 0xffff, 0xffff, 0xffff, 0xffff,
   0x00ff, 0xff00, 0xffff, 0xffff, 0xffff, 0xffff, 0xffff, 0x0000, 0x00ff,
   0xff00, 0x0000, 0xffff, 0xffff, 0xffff, 0xffff, 0xffff, 0x00ff, 0xff00,
   0xffff, 0xffff, 0xffff, 0xffff, 0xffff, 0x0000, 0x00ff, 0xff00, 0x0000,
   0xffff, 0xffff, 0xffff, 0xffff, 0xffff, 0x00ff, 0xff00, 0xffff, 0xffff,
   0xffff, 0xffff, 0xffff, 0x0000, 0x00ff, 0xff00, 0x0000, 0xffff, 0xffff,
   0xffff, 0xffff, 0xffff, 0x00ff, 0xff00, 0xffff, 0xffff, 0xffff, 0xffff,
   0xffff, 0x0000, 0x00ff, 0xff00, 0x0000, 0xffff, 0xffff, 0xffff, 0xffff,
   0xffff, 0x00ff, 0xff00, 0xffff, 0xffff, 0xffff, 0xffff, 0xffff, 0x0000,
   0x00ff, 0xff00, 0x0000, 0xffff, 0xffff, 0xffff, 0xffff, 0xffff, 0x00ff,
   0xff00, 0xffff, 0xffff, 0xffff, 0xffff, 0xffff, 0x0000, 0x00ff, 0xff00,
   0x0000, 0xffff, 0xffff, 0xffff, 0xffff, 0xffff, 0x00ff, 0xff00, 0xffff,
   0xffff, 0xffff, 0xffff, 0xffff, 0x0000, 0x00ff, 0xffff, 0x0000, 0xffff,
   0xffff, 0xffff, 0xffff, 0xffff, 0x00ff, 0xff00, 0xffff, 0xffff, 0xffff,
   0xffff, 0xffff, 0x0000, 0xffff, 0xffff, 0x0000, 0xffff, 0xffff, 0xffff,
   0xffff, 0xffff, 0x00ff, 0xff00, 0xffff, 0xffff, 0xffff, 0xffff, 0xffff,
   0x0000, 0xffff, 0xffff, 0x0000, 0xffff, 0xffff, 0xffff, 0xffff, 0xffff,
   0x00ff, 0xff00, 0xffff, 0xffff, 0xffff, 0xffff, 0xffff, 0x0000, 0xffff,
   0xffff, 0x0000, 0xffff, 0xffff, 0xffff, 0xffff, 0xffff, 0x00ff, 0xff00,
   0xffff, 0xffff, 0xffff, 0xffff, 0xffff, 0x0000, 0xffff, 0xffff, 0x0000,
   0xffff, 0xffff, 0xffff, 0xffff, 0xffff, 0x00ff, 0xff00, 0xffff, 0xffff,
   0xffff, 0xffff, 0xffff, 0x0000, 0xffff, 0xffff, 0x0000, 0xffff, 0xffff,
   0xffff, 0xffff, 0xffff, 0x00ff, 0xff00, 0xffff, 0xffff, 0xffff, 0xffff,
   0xffff, 0x0000, 0xffff, 0xffff, 0x0000, 0xffff, 0xffff, 0xffff, 0xffff,
   0xffff, 0x00ff, 0xff00, 0xffff, 0xffff, 0xffff, 0xffff, 0xffff, 0x0000,
   0xffff, 0xffff, 0x0000, 0xffff, 0xffff, 0xffff, 0xffff, 0xffff, 0x00ff,
   0xff00, 0xffff, 0xffff, 0xffff, 0xffff, 0xffff, 0x0000, 0xffff, 0xffff,
   0xff00, 0xffff, 0xffff, 0xffff, 0xffff, 0xffff, 0x00ff, 0xff00, 0xffff,
   0xffff, 0xffff, 0xffff, 0xffff, 0x00ff, 0xff00, 0xffff, 0xff00, 0xffff,
   0xffff, 0xffff, 0xffff, 0xffff, 0x00ff, 0xff00, 0xffff, 0xffff, 0xffff,
   0xffff, 0xffff, 0x00ff, 0xff00, 0xffff, 0xff00, 0xffff, 0xffff, 0xffff,
   0xffff, 0xffff, 0x00ff, 0xff00, 0xffff, 0xffff, 0xffff, 0xffff, 0xffff,
   0x00ff, 0xff00, 0xffff, 0xff00, 0xffff, 0xffff, 0xffff, 0xffff, 0xffff,
   0x00ff, 0xff00, 0xffff, 0xffff, 0xffff, 0xffff, 0xffff, 0x00ff, 0xff00,
   0xffff, 0xff00, 0xffff, 0xffff, 0xffff, 0xffff, 0xffff, 0x00ff, 0xff00,
   0xffff, 0xffff, 0xffff, 0xffff, 0xffff, 0x00ff, 0xff00, 0xffff, 0xff00,
   0xffff, 0xffff, 0xffff, 0xffff, 0xffff, 0x00ff, 0xff00, 0xffff, 0xffff,
   0xffff, 0xffff, 0xffff, 0x00ff, 0xff00, 0xffff, 0xff00, 0xffff, 0xffff,
   0xffff, 0xffff, 0xffff, 0x00ff, 0xff00, 0xffff, 0xffff, 0xffff, 0xffff,
   0xffff, 0x00ff, 0xff00, 0xffff, 0xff00, 0xffff, 0xffff, 0xffff, 0xffff,
   0xffff, 0x00ff, 0xff00, 0xffff, 0xffff, 0xffff, 0xffff, 0xffff, 0x00ff,
   0xff00, 0x00ff, 0xff00, 0xffff, 0xffff, 0xffff, 0xffff, 0xffff, 0x00ff,
   0xff00, 0xffff, 0xffff, 0xffff, 0xffff, 0xffff, 0x00ff, 0xff00, 0x00ff,
   0xff00, 0xffff, 0xffff, 0xffff, 0xffff, 0xffff, 0x00ff, 0xff00, 0xffff,
   0xffff, 0xffff, 0xffff, 0xffff, 0x00ff, 0xff00, 0x00ff, 0xff00, 0xffff,
   0xffff, 0xffff, 0xffff, 0xffff, 0x00ff, 0xff00, 0xffff, 0xffff, 0xffff,
   0xffff, 0xffff, 0x00ff, 0xff00, 0x00ff, 0xff00, 0xffff, 0xffff, 0xffff,
   0xffff, 0xffff, 0x00ff, 0xff00, 0xffff, 0xffff, 0xffff, 0xffff, 0xffff,
   0x00ff, 0xff00, 0x00ff, 0xff00, 0xffff, 0xffff, 0xffff, 0xffff, 0xffff,
   0x00ff, 0xff00, 0xffff, 0xffff, 0xffff, 0xffff, 0xffff, 0x00ff, 0xff00,
   0x00ff, 0xff00, 0xffff, 0xffff, 0xffff, 0xffff, 0xffff, 0x00ff, 0xff00,
   0xffff, 0xffff, 0xffff, 0xffff, 0xffff, 0x00ff, 0xff00, 0x00ff, 0xff00,
   0xffff, 0xffff, 0xffff, 0xffff, 0xffff, 0x00ff, 0xff00, 0xffff, 0xffff,
   0xffff, 0xffff, 0xffff, 0x00ff, 0xff00, 0x00ff, 0xff00, 0xffff, 0xffff,
   0xffff, 0xffff, 0xffff, 0x00ff, 0xff00, 0xffff, 0xffff, 0xffff, 0xffff,
   0xffff, 0x00ff, 0xff00, 0x00ff, 0xff00, 0xffff, 0xffff, 0xffff, 0xffff,
   0xffff, 0x0000, 0x0000, 0xffff, 0xffff, 0xffff, 0xffff, 0xffff, 0x00ff,
   0xff00, 0x00ff, 0xff00, 0xffff, 0xffff, 0xffff, 0xffff, 0xffff, 0x0000,
   0x0000, 0xffff, 0xffff, 0xffff, 0xffff, 0xffff, 0x00ff, 0xff00, 0x00ff,
   0xff00, 0xffff, 0xffff, 0xffff, 0xffff, 0xffff, 0x0000, 0x0000, 0xffff,
   0xffff, 0xffff, 0xffff, 0xffff, 0x00ff, 0xff00, 0x00ff, 0xff00, 0xffff,
   0xffff, 0xffff, 0xffff, 0xffff, 0x0000, 0x0000, 0xffff, 0xffff, 0xffff,
   0xffff, 0xffff, 0x00ff, 0xff00, 0x00ff, 0xff00, 0xffff, 0xffff, 0xffff,
   0xffff, 0xffff, 0x0000, 0x0000, 0xffff, 0xffff, 0xffff, 0xffff, 0xffff,
   0x00ff, 0xff00, 0x00ff, 0xff00, 0xffff, 0xffff, 0xffff, 0xffff, 0xffff,
   0x0000, 0x0000, 0xffff, 0xffff, 0xffff, 0xffff, 0xffff, 0x00ff, 0xff00,
   0x00ff, 0xff00, 0xffff, 0xffff, 0xffff, 0xffff, 0xffff, 0x0000, 0x0000,
   0xffff, 0xffff, 0xffff, 0xffff, 0xffff, 0x00ff, 0xff00, 0x00ff, 0xff00,
   0xffff, 0xffff, 0xffff, 0xffff, 0xffff, 0x0000, 0x0000, 0xffff, 0xffff,
   0xffff, 0xffff, 0xffff, 0x00ff, 0xff00, 0x00ff, 0xff00, 0xffff, 0xffff,
   0xffff, 0xffff, 0xffff, 0x0000, 0x0000, 0xffff, 0xffff, 0xffff, 0xffff,
   0xffff, 0x00ff, 0xff00, 0x00ff, 0xff00, 0xffff, 0xffff, 0xffff, 0xffff,
   0xffff, 0x0000, 0x0000, 0xffff, 0xffff, 0xffff, 0xffff, 0xffff, 0x00ff,
   0xff00, 0x00ff, 0xff00, 0xffff, 0xffff, 0xffff, 0xffff, 0xffff, 0x0000,
   0x0000, 0xffff, 0xffff, 0xffff, 0xffff, 0xffff, 0x00ff, 0xff00, 0x00ff,
   0xff00, 0xffff, 0xffff, 0xffff, 0xffff, 0xffff, 0x0000, 0x0000, 0xffff,
   0xffff, 0xffff, 0xffff, 0xffff, 0x00ff, 0xff00, 0x00ff, 0xff00, 0xffff,
   0xffff, 0xffff, 0xffff, 0xffff, 0x0000, 0x0000, 0xffff, 0xffff, 0xffff,
   0xffff, 0xffff, 0x00ff, 0xff00, 0x00ff, 0xff00, 0xffff, 0xffff, 0xffff,
   0xffff, 0xffff, 0x0000, 0x0000, 0xffff, 0xffff, 0xffff, 0xffff, 0xffff,
   0x00ff, 0xff00, 0x00ff, 0xff00, 0xffff, 0xffff, 0xffff, 0xffff, 0xffff,
   0x0000, 0x0000, 0xffff, 0xffff, 0xffff, 0xffff, 0xffff, 0x00ff, 0xff00,
   0x00ff, 0xff00, 0xffff, 0xffff, 0xffff, 0xffff, 0xffff, 0x0000, 0x0000,
   0xffff, 0xffff, 0xffff, 0xffff, 0xffff, 0x00ff, 0xff00, 0x00ff, 0xff00,
   0xffff, 0xffff, 0xffff, 0xffff, 0xffff, 0x00ff, 0x0000, 0xff00, 0xffff,
   0xffff, 0xffff, 0xffff, 0x00ff, 0xff00, 0x00ff, 0xff00, 0xffff, 0xffff,
   0xffff, 0xffff, 0xffff, 0x00ff, 0x0000, 0xff00, 0xffff, 0xffff, 0xffff,
   0xffff, 0x00ff, 0xff00, 0x00ff, 0xff00, 0xffff, 0xffff, 0xffff, 0xffff,
   0xffff, 0x00ff, 0x0000, 0xff00, 0xffff, 0xffff, 0xffff, 0xffff, 0x00ff,
   0xff00, 0x00ff, 0xff00, 0xffff, 0xffff, 0xffff, 0xffff, 0xffff, 0x00ff,
   0x0000, 0xff00, 0xffff, 0xffff, 0xffff, 0xffff, 0x00ff, 0xff00, 0x00ff,
   0xff00, 0xffff, 0xffff, 0xffff, 0xffff, 0xffff, 0x00ff, 0x0000, 0xff00,
   0xffff, 0xffff, 0xffff, 0xffff, 0x00ff, 0xff00, 0x00ff, 0xff00, 0xffff,
   0xffff, 0xffff, 0xffff, 0xffff, 0x00ff, 0x0000, 0xff00, 0xffff, 0xffff,
   0xffff, 0xffff, 0x00ff, 0xff00, 0x00ff, 0xff00, 0xffff, 0xffff, 0xffff,
   0xffff, 0xffff, 0x00ff, 0x0000, 0xff00, 0xffff, 0xffff, 0xffff, 0xffff,
   0x00ff, 0xff00, 0x00ff, 0xff00, 0xffff, 0xffff, 0xffff, 0xffff, 0xffff,
   0x00ff, 0x0000, 0xff00, 0xffff, 0xffff, 0xffff, 0xffff, 0x00ff, 0xff00,
   0xffff, 0x0000, 0xffff, 0xffff, 0xffff, 0xffff, 0xffff, 0xffff, 0x00ff,
   0x0000, 0xffff, 0xffff, 0xffff, 0xffff, 0x00ff, 0xff00, 0xffff, 0x0000,
   0xffff, 0xffff, 0xffff, 0xffff, 0xffff, 0xffff, 0x00ff, 0x0000, 0xffff,
   0xffff, 0xffff, 0xffff, 0x00ff, 0xff00, 0xffff, 0x0000, 0xffff, 0xffff,
   0xffff, 0xffff, 0xffff, 0xffff, 0x00ff, 0x0000, 0xffff, 0xffff, 0xffff,
   0xffff, 0x00ff, 0xff00, 0xffff, 0x0000, 0xffff, 0xffff, 0xffff, 0xffff,
   0xffff, 0xffff, 0x00ff, 0x0000, 0xffff, 0xffff, 0xffff, 0xffff, 0x00ff,
   0xff00, 0xffff, 0x0000, 0xffff, 0xffff, 0xffff, 0xffff, 0xffff, 0xffff,
   0x00ff, 0x0000, 0xffff, 0xffff, 0xffff, 0xffff, 0x00ff, 0xff00, 0xffff,
   0x0000, 0xffff, 0xffff, 0xffff, 0xffff, 0xffff, 0xffff, 0x00ff, 0x0000,
   0xffff, 0xffff, 0xffff, 0xffff, 0x00ff, 0xff00, 0xffff, 0x0000, 0xffff,
   0xffff, 0xffff, 0xffff, 0xffff, 0xffff, 0x00ff, 0x0000, 0xffff, 0xffff,
   0xffff, 0xffff, 0x00ff, 0xff00, 0xffff, 0x0000, 0xffff, 0xffff, 0xffff,
   0xffff, 0xffff, 0xffff, 0x00ff, 0x0000, 0xffff, 0xffff, 0xffff, 0xffff,
   0x00ff, 0xff00, 0xffff, 0x0000, 0xffff, 0xffff, 0xffff, 0xffff, 0xffff,
   0xffff, 0xffff, 0x0000, 0xff00, 0xffff, 0xffff, 0xffff, 0x0000, 0xffff,
   0xffff, 0x0000, 0xffff, 0xffff, 0xffff, 0xffff, 0xffff, 0xffff, 0xffff,
   0x0000, 0xff00, 0xffff, 0xffff, 0xffff, 0x0000, 0xffff, 0xffff, 0x0000,
   0xffff, 0xffff, 0xffff, 0xffff, 0xffff, 0xffff, 0xffff, 0x0000, 0xff00,
   0xffff, 0xffff, 0xffff, 0x0000, 0xffff, 0xffff, 0x0000, 0xffff, 0xffff,
   0xffff, 0xffff, 0xffff, 0xffff, 0xffff, 0x0000, 0xff00, 0xffff, 0xffff,
   0xffff, 0x0000, 0xffff, 0xffff, 0x0000, 0xffff, 0xffff, 0xffff, 0xffff,
   0xffff, 0xffff, 0xffff, 0x0000, 0xff00, 0xffff, 0xffff, 0xffff, 0x0000,
   0xffff, 0xffff, 0x0000, 0xffff, 0xffff, 0xffff, 0xffff, 0xffff, 0xffff,
   0xffff, 0x0000, 0xff00, 0xffff, 0xffff, 0xffff, 0x0000, 0xffff, 0xffff,
   0x0000, 0xffff, 0xffff, 0xffff, 0xffff, 0xffff, 0xffff, 0xffff, 0x0000,
   0xff00, 0xffff, 0xffff, 0xffff, 0x0000, 0xffff, 0xffff, 0x0000, 0xffff,
   0xffff, 0xffff, 0xffff, 0xffff, 0xffff, 0xffff, 0x0000, 0xff00, 0xffff,
   0xffff, 0xffff, 0x0000, 0xffff, 0xff00, 0x0000, 0xffff, 0xffff, 0xffff,
   0xffff, 0xffff, 0xffff, 0xffff, 0x00ff, 0x0000, 0xffff, 0xffff, 0xffff,
   0x0000, 0x00ff, 0xff00, 0x0000, 0xffff, 0xffff, 0xffff, 0xffff, 0xffff,
   0xffff, 0xffff, 0x00ff, 0x0000, 0xffff, 0xffff, 0xffff, 0x0000, 0x00ff,
   0xff00, 0x0000, 0xffff, 0xffff, 0xffff, 0xffff, 0xffff, 0xffff, 0xffff,
   0x00ff, 0x0000, 0xffff, 0xffff, 0xffff, 0x0000, 0x00ff, 0xff00, 0x0000,
   0xffff, 0xffff, 0xffff, 0xffff, 0xffff, 0xffff, 0xffff, 0x00ff, 0x0000,
   0xffff, 0xffff, 0xffff, 0x0000, 0x00ff, 0xff00, 0x0000, 0xffff, 0xffff,
   0xffff, 0xffff, 0xffff, 0xffff, 0xffff, 0x00ff, 0x0000, 0xffff, 0xffff,
   0xffff, 0x0000, 0x00ff, 0xff00, 0x0000, 0xffff, 0xffff, 0xffff, 0xffff,
   0xffff, 0xffff, 0xffff, 0x00ff, 0x0000, 0xffff, 0xffff, 0xffff, 0x0000,
   0x00ff, 0xff00, 0x0000, 0xffff, 0xffff, 0xffff, 0xffff, 0xffff, 0xffff,
   0xffff, 0x00ff, 0x0000, 0xffff, 0xffff, 0xffff, 0x0000, 0x00ff, 0xff00,
   0x0000, 0xffff, 0xffff, 0xffff, 0xffff, 0xffff, 0xffff, 0xffff, 0x00ff,
   0x0000, 0xffff, 0xffff, 0xffff, 0x0000, 0x00ff, 0xff00, 0x0000, 0xff00,
   0xffff, 0xffff, 0xffff, 0xffff, 0xffff, 0xffff, 0xffff, 0x0000, 0xff00,
   0xffff, 0xffff, 0x0000, 0x00ff, 0xff00, 0x0000, 0xff00, 0xffff, 0xffff,
   0xffff, 0xffff, 0xffff, 0xffff, 0xffff, 0x0000, 0xff00, 0xffff, 0xffff,
   0x0000, 0x00ff, 0xff00, 0x0000, 0xff00, 0xffff, 0xffff, 0xffff, 0xffff,
   0xffff, 0xffff, 0xffff, 0x0000, 0xff00, 0xffff, 0xffff, 0x0000, 0x00ff,
   0xff00, 0x0000, 0xff00, 0xffff, 0xffff, 0xffff, 0xffff, 0xffff, 0xffff,
   0xffff, 0x0000, 0xff00, 0xffff, 0xffff, 0x0000, 0x00ff, 0xff00, 0x0000,
   0xff00, 0xffff, 0xffff, 0xffff, 0xffff, 0xffff, 0xffff, 0xffff, 0x0000,
   0xff00, 0xffff, 0xffff, 0x0000, 0x00ff, 0xff00, 0x0000, 0xff00, 0xffff,
   0xffff, 0xffff, 0xffff, 0xffff, 0xffff, 0xffff, 0x0000, 0xff00, 0xffff,
   0xffff, 0x0000, 0x00ff, 0xff00, 0x0000, 0xff00, 0xffff, 0xffff, 0xffff,
   0xffff, 0xffff, 0xffff, 0xffff, 0x0000, 0xff00, 0xffff, 0xffff, 0x0000,
   0x00ff, 0xff00, 0x0000, 0xff00, 0xffff, 0xffff, 0xffff, 0xffff, 0xffff,
   0xffff, 0xffff, 0x0000, 0xff00, 0xffff, 0xffff, 0x0000, 0x00ff, 0xff00,
   0x00ff, 0xff00, 0xffff, 0xffff, 0xffff, 0xffff, 0xffff, 0xffff, 0xffff,
   0x00ff, 0x0000, 0xffff, 0x00ff, 0xff00, 0x00ff, 0xff00, 0x00ff, 0xff00,
   0xffff, 0xffff, 0xffff, 0xffff, 0xffff, 0xffff, 0xffff, 0x00ff, 0x0000,
   0xffff, 0x00ff, 0xff00, 0x00ff, 0xff00, 0x00ff, 0xff00, 0xffff, 0xffff,
   0xffff, 0xffff, 0xffff, 0xffff, 0xffff, 0x00ff, 0x0000, 0xffff, 0x00ff,
   0xff00, 0x00ff, 0xff00, 0x00ff, 0xff00, 0xffff, 0xffff, 0xffff, 0xffff,
   0xffff, 0xffff, 0xffff, 0x00ff, 0x0000, 0xffff, 0x00ff, 0xff00, 0x00ff,
   0xff00, 0x00ff, 0xff00, 0xffff, 0xffff, 0xffff, 0xffff, 0xffff, 0xffff,
   0xffff, 0x00ff, 0x0000, 0xffff, 0x00ff, 0xff00, 0x00ff, 0xff00, 0x00ff,
   0xff00, 0xffff, 0xffff, 0xffff, 0xffff, 0xffff, 0xffff, 0xffff, 0x00ff,
   0x0000, 0xffff, 0x00ff, 0xff00, 0x00ff, 0xff00, 0x00ff, 0xff00, 0xffff,
   0xffff, 0xffff, 0xffff, 0xffff, 0xffff, 0xffff, 0x00ff, 0x0000, 0xffff,
   0x00ff, 0xff00, 0x00ff, 0xff00, 0x00ff, 0xff00, 0xffff, 0xffff, 0xffff,
   0xffff, 0xffff, 0xffff, 0xffff, 0x00ff, 0x0000, 0xffff, 0x00ff, 0xff00,
   0x00ff, 0x0000, 0x00ff, 0x0000, 0xffff, 0xffff, 0xffff, 0xffff, 0xffff,
   0xffff, 0xffff, 0xffff, 0x0000, 0xffff, 0x0000, 0xff00, 0x0000, 0x0000,
   0x00ff, 0x0000, 0xffff, 0xffff, 0xffff, 0xffff, 0xffff, 0xffff, 0xffff,
   0xffff, 0x0000, 0xffff, 0x0000, 0xff00, 0x0000, 0x0000, 0x00ff, 0x0000,
   0xffff, 0xffff, 0xffff, 0xffff, 0xffff, 0xffff, 0xffff, 0xffff, 0x0000,
   0xffff, 0x0000, 0xff00, 0x0000, 0x0000, 0x00ff, 0x0000, 0xffff, 0xffff,
   0xffff, 0xffff, 0xffff, 0xffff, 0xffff, 0xffff, 0x0000, 0xffff, 0x0000,
   0xff00, 0x0000, 0x0000, 0x00ff, 0x0000, 0xffff, 0xffff, 0xffff, 0xffff,
   0xffff, 0xffff, 0xffff, 0xffff, 0x0000, 0xffff, 0x0000, 0xff00, 0x0000,
   0x0000, 0x00ff, 0x0000, 0xffff, 0xffff, 0xffff, 0xffff, 0xffff, 0xffff,
   0xffff, 0xffff, 0x0000, 0xffff, 0x0000, 0xff00, 0x0000, 0x0000, 0x00ff,
   0x0000, 0xffff, 0xffff, 0xffff, 0xffff, 0xffff, 0xffff, 0xffff, 0xffff,
   0x0000, 0xffff, 0x0000, 0xff00, 0x0000, 0x0000, 0x00ff, 0x0000, 0xffff,
   0xffff, 0xffff, 0xffff, 0xffff, 0xffff, 0xffff, 0xffff, 0x0000, 0xffff,
   0x0000, 0xff00, 0x0000, 0x0000, 0xff00, 0x0000, 0xff00, 0xffff, 0xffff,
   0xffff, 0xffff, 0xffff, 0xffff, 0xffff, 0xffff, 0xffff, 0x0000, 0xffff,
   0x0000, 0x0000, 0xff00, 0x0000, 0xff00, 0xffff, 0xffff, 0xffff, 0xffff,
   0xffff, 0xffff, 0xffff, 0xffff, 0xffff, 0x0000, 0xffff, 0x0000, 0x0000,
   0xff00, 0x0000, 0xff00, 0xffff, 0xffff, 0xffff, 0xffff, 0xffff, 0xffff,
   0xffff, 0xffff, 0xffff, 0x0000, 0xffff, 0x0000, 0x0000, 0xff00, 0x0000,
   0xff00, 0xffff, 0xffff, 0xffff, 0xffff, 0xffff, 0xffff, 0xffff, 0xffff,
   0xffff, 0x0000, 0xffff, 0x0000, 0x0000, 0xff00, 0x0000, 0xff00, 0xffff,
   0xffff, 0xffff, 0xffff, 0xffff, 0xffff, 0xffff, 0xffff, 0xffff, 0x0000,
   0xffff, 0x0000, 0x0000, 0xff00, 0x0000, 0xff00, 0xffff, 0xffff, 0xffff,
   0xffff, 0xffff, 0xffff, 0xffff, 0xffff, 0xffff, 0x0000, 0xffff, 0x0000,
   0x0000, 0xff00, 0x0000, 0xff00, 0xffff, 0xffff, 0xffff, 0xffff, 0xffff,
   0xffff, 0xffff, 0xffff, 0xffff, 0x0000, 0xffff, 0x0000, 0x0000, 0xff00,
   0x0000, 0xff00, 0xffff, 0xffff, 0xffff, 0xffff, 0xffff, 0xffff, 0xffff,
   0xffff, 0xffff, 0x0000, 0xffff, 0x0000, 0x0000, 0xff00, 0x00ff, 0x0000,
   0xffff, 0xffff, 0xffff, 0xffff, 0xffff, 0xffff, 0xffff, 0xffff, 0x00ff,
   0xff00, 0x00ff, 0x0000, 0x0000, 0xff00, 0x00ff, 0x0000, 0xffff, 0xffff,
   0xffff, 0xffff, 0xffff, 0xffff, 0xffff, 0xffff, 0x00ff, 0xff00, 0x00ff,
   0x0000, 0x0000, 0xff00, 0x00ff, 0x0000, 0xffff, 0xffff, 0xffff, 0xffff,
   0xffff, 0xffff, 0xffff, 0xffff, 0x00ff, 0xff00, 0x00ff, 0x0000, 0x0000,
   0xff00, 0x00ff, 0x0000, 0xffff, 0xffff, 0xffff, 0xffff, 0xffff, 0xffff,
   0xffff, 0xffff, 0x00ff, 0xff00, 0x00ff, 0x0000, 0x0000, 0xff00, 0x00ff,
   0x0000, 0xffff, 0xffff, 0xffff, 0xffff, 0xffff, 0xffff, 0xffff, 0xffff,
   0x00ff, 0xff00, 0x00ff, 0x0000, 0x0000, 0xff00, 0x00ff, 0x0000, 0xffff,
   0xffff, 0xffff, 0xffff, 0xffff, 0xffff, 0xffff, 0xffff, 0x00ff, 0xff00,
   0x00ff, 0x0000, 0x0000, 0xff00, 0x00ff, 0x0000, 0xffff, 0xffff, 0xffff,
   0xffff, 0xffff, 0xffff, 0xffff, 0xffff, 0x00ff, 0xff00, 0x00ff, 0x0000,
   0x0000, 0xff00, 0x00ff, 0x0000, 0xffff, 0xffff, 0xffff, 0xffff, 0xffff,
   0xffff, 0xffff, 0xffff, 0x00ff, 0xff00, 0x00ff, 0x0000, 0x0000, 0x0000,
   0xffff, 0x0000, 0xff00, 0xffff, 0xffff, 0xffff, 0xffff, 0xffff, 0xffff,
   0x00ff, 0x0000, 0xffff, 0x0000, 0x0000, 0x0000, 0x0000, 0xffff, 0x0000,
   0xff00, 0xffff, 0xffff, 0xffff, 0xffff, 0xffff, 0xffff, 0x00ff, 0x0000,
   0xffff, 0x0000, 0x0000, 0x0000, 0x0000, 0xffff, 0x0000, 0xff00, 0xffff,
   0xffff, 0xffff, 0xffff, 0xffff, 0xffff, 0x00ff, 0x0000, 0xffff, 0x0000,
   0x0000, 0x0000, 0x0000, 0xffff, 0x0000, 0xff00, 0xffff, 0xffff, 0xffff,
   0xffff, 0xffff, 0xffff, 0x00ff, 0x0000, 0xffff, 0x0000, 0x0000, 0x0000,
   0x0000, 0xffff, 0x0000, 0xff00, 0xffff, 0xffff, 0xffff, 0xffff, 0xffff,
   0xffff, 0x00ff, 0x0000, 0xffff, 0x0000, 0x0000, 0x0000, 0x0000, 0xffff,
   0x0000, 0xff00, 0xffff, 0xffff, 0xffff, 0xffff, 0xffff, 0xffff, 0x00ff,
   0x0000, 0xffff, 0x0000, 0x0000, 0x0000, 0x0000, 0xffff, 0x0000, 0xff00,
   0xffff, 0xffff, 0xffff, 0xffff, 0xffff, 0xffff, 0x00ff, 0x0000, 0xffff,
   0x0000, 0x0000, 0x0000, 0x0000, 0xffff, 0x0000, 0xff00, 0xffff, 0xffff,
   0xffff, 0xffff, 0xffff, 0xffff, 0x00ff, 0x0000, 0xffff, 0x0000, 0x0000,
   0x0000, 0x0000, 0xff00, 0x00ff, 0x0000, 0xff00, 0xffff, 0xffff, 0xffff,
   0xffff, 0xffff, 0x0000, 0xff00, 0x00ff, 0x0000, 0x0000, 0x0000, 0x0000,
   0xff00, 0x00ff, 0x0000, 0xff00, 0xffff, 0xffff, 0xffff, 0xffff, 0xffff,
   0x0000, 0xff00, 0x00ff, 0x0000, 0x0000, 0x0000, 0x0000, 0xff00, 0x00ff,
   0x0000, 0xff00, 0xffff, 0xffff, 0xffff, 0xffff, 0xffff, 0x0000, 0xff00,
   0x00ff, 0x0000, 0x0000, 0x0000, 0x0000, 0xff00, 0x00ff, 0x0000, 0xff00,
   0xffff, 0xffff, 0xffff, 0xffff, 0xffff, 0x0000, 0xff00, 0x00ff, 0x0000,
   0x0000, 0x0000, 0x0000, 0xff00, 0x00ff, 0x0000, 0xff00, 0xffff, 0xffff,
   0xffff, 0xffff, 0xffff, 0x0000, 0xff00, 0x00ff, 0x0000, 0x0000, 0x0000,
   0x0000, 0xff00, 0x00ff, 0x0000, 0xff00, 0xffff, 0xffff, 0xffff, 0xffff,
   0xffff, 0x0000, 0xff00, 0x00ff, 0x0000, 0x0000, 0x0000, 0x0000, 0xff00,
   0x00ff, 0x0000, 0xff00, 0xffff, 0xffff, 0xffff, 0xffff, 0xffff, 0x0000,
   0xff00, 0x00ff, 0x0000, 0x0000, 0x0000, 0x0000, 0xff00, 0x00ff, 0x0000,
   0xff00, 0xffff, 0xffff, 0xffff, 0xffff, 0xffff, 0x0000, 0xff00, 0x00ff,
   0x0000, 0x0000, 0x0000, 0x0000, 0x0000, 0xffff, 0x0000, 0x0000, 0x0000,
   0xffff, 0xffff, 0x0000, 0x0000, 0x0000, 0xffff, 0x0000, 0x0000, 0x0000,
   0x0000, 0x0000, 0x0000, 0xffff, 0x0000, 0x0000, 0x0000, 0xffff, 0xffff,
   0x0000, 0x0000, 0x0000, 0xffff, 0x0000, 0x0000, 0x0000, 0x0000, 0x0000,
   0x0000, 0xffff, 0x0000, 0x0000, 0x0000, 0xffff, 0xffff, 0x0000, 0x0000,
   0x0000, 0xffff, 0x0000, 0x0000, 0x0000, 0x0000, 0x0000, 0x0000, 0xffff,
   0x0000, 0x0000, 0x0000, 0xffff, 0xffff, 0x0000, 0x0000, 0x0000, 0xffff,
   0x0000, 0x0000, 0x0000, 0x0000, 0x0000, 0x0000, 0xffff, 0x0000, 0x0000,
   0x0000, 0xffff, 0xffff, 0x0000, 0x0000, 0x0000, 0xffff, 0x0000, 0x0000,
   0x0000, 0x0000, 0x0000, 0x0000, 0xffff, 0x0000, 0x0000, 0x0000, 0xffff,
   0xffff, 0x0000, 0x0000, 0x0000, 0xffff, 0x0000, 0x0000, 0x0000, 0x0000,
   0x0000, 0x0000, 0xffff, 0x0000, 0x0000, 0x0000, 0xffff, 0xffff, 0x0000,
   0x0000, 0x0000, 0xffff, 0x0000, 0x0000, 0x0000, 0x0000, 0x0000, 0x0000,
   0xffff, 0x0000, 0x0000, 0x0000, 0xffff, 0xffff, 0x0000, 0x0000, 0x0000,
   0xffff, 0x0000, 0x0000, 0x0000, 0x0000, 0x0000, 0x0000, 0x0000, 0xffff,
   0x0000, 0x0000, 0x0000, 0x0000, 0x0000, 0x0000, 0xffff, 0x00ff, 0x0000,
   0x0000, 0x0000, 0x0000, 0x0000, 0x0000, 0x0000, 0xffff, 0x0000, 0x0000,
   0x0000, 0x0000, 0x0000, 0x0000, 0xffff, 0x00ff, 0x0000, 0x0000, 0x0000,
   0x0000, 0x0000, 0x0000, 0x0000, 0xffff, 0x0000, 0x0000, 0x0000, 0x0000,
   0x0000, 0x0000, 0xffff, 0x00ff, 0x0000, 0x0000, 0x0000, 0x0000, 0x0000,
   0x0000, 0x0000, 0xffff, 0x0000, 0x0000, 0x0000, 0x0000, 0x0000, 0x0000,
   0xffff, 0x00ff, 0x0000, 0x0000, 0x0000, 0x0000, 0x0000, 0x0000, 0x0000,
   0xffff, 0x0000, 0x0000, 0x0000, 0x0000, 0x0000, 0x0000, 0xffff, 0x00ff,
   0x0000, 0x0000, 0x0000, 0x0000, 0x0000, 0x0000, 0x0000, 0xffff, 0x0000,
   0x0000, 0x0000, 0x0000, 0x0000, 0x0000, 0xffff, 0x00ff, 0x0000, 0x0000,
   0x0000, 0x0000, 0x0000, 0x0000, 0x0000, 0xffff, 0x0000, 0x0000, 0x0000,
   0x0000, 0x0000, 0x0000, 0xffff, 0x00ff, 0x0000, 0x0000, 0x0000, 0x0000,
   0x0000, 0x0000, 0x0000, 0xffff, 0x0000, 0x0000, 0x0000, 0x0000, 0x0000,
   0x0000, 0xffff, 0x00ff, 0x0000, 0x0000, 0x0000, 0x0000, 0x0000, 0x0000,
   0x0000, 0xff00, 0xffff, 0xffff, 0x0000, 0x0000, 0xffff, 0xffff, 0x00ff,
   0x0000, 0x0000, 0x0000, 0x0000, 0x0000, 0x0000, 0x0000, 0x0000, 0xff00,
   0xffff, 0xffff, 0x0000, 0x0000, 0xffff, 0xffff, 0x00ff, 0x0000, 0x0000,
   0x0000, 0x0000, 0x0000, 0x0000, 0x0000, 0x0000, 0xff00, 0xffff, 0xffff,
   0x0000, 0x0000, 0xffff, 0xffff, 0x00ff, 0x0000, 0x0000, 0x0000, 0x0000,
   0x0000, 0x0000, 0x0000, 0x0000, 0xff00, 0xffff, 0xffff, 0x0000, 0x0000,
   0xffff, 0xffff, 0x00ff, 0x0000, 0x0000, 0x0000, 0x0000, 0x0000, 0x0000,
   0x0000, 0x0000, 0xff00, 0xffff, 0xffff, 0x0000, 0x0000, 0xffff, 0xffff,
   0x00ff, 0x0000, 0x0000, 0x0000, 0x0000, 0x0000, 0x0000, 0x0000, 0x0000,
   0xff00, 0xffff, 0xffff, 0x0000, 0x0000, 0xffff, 0xffff, 0x00ff, 0x0000,
   0x0000, 0x0000, 0x0000, 0x0000, 0x0000, 0x0000, 0x0000, 0xff00, 0xffff,
   0xffff, 0x0000, 0x0000, 0xffff, 0xffff, 0x00ff, 0x0000, 0x0000, 0x0000,
   0x0000, 0x0000, 0x0000, 0x0000, 0x0000, 0xff00, 0xffff, 0xffff, 0x0000,
   0x0000, 0xffff, 0xffff, 0x00ff, 0x0000, 0x0000, 0x0000, 0x0000, 0x0000,
   0x0000, 0x0000, 0x0000, 0x0000, 0x0000, 0xffff, 0xffff, 0xffff, 0xffff,
   0x0000, 0x0000, 0x0000, 0x0000, 0x0000, 0x0000, 0x0000, 0x0000, 0x0000,
   0x0000, 0x0000, 0x0000, 0xffff, 0xffff, 0xffff, 0xffff, 0x0000, 0x0000,
   0x0000, 0x0000, 0x0000, 0x0000, 0x0000, 0x0000, 0x0000, 0x0000, 0x0000,
   0x0000, 0xffff, 0xffff, 0xffff, 0xffff, 0x0000, 0x0000, 0x0000, 0x0000,
   0x0000, 0x0000, 0x0000, 0x0000, 0x0000, 0x0000, 0x0000, 0x0000, 0xffff,
   0xffff, 0xffff, 0xffff, 0x0000, 0x0000, 0x0000, 0x0000, 0x0000, 0x0000,
   0x0000, 0x0000, 0x0000, 0x0000, 0x0000, 0x0000, 0xffff, 0xffff, 0xffff,
   0xffff, 0x0000, 0x0000, 0x0000, 0x0000, 0x0000, 0x0000, 0x0000, 0x0000,
   0x0000, 0x0000, 0x0000, 0x0000, 0xffff, 0xffff, 0xffff, 0xffff, 0x0000,
   0x0000, 0x0000, 0x0000, 0x0000, 0x0000, 0x0000, 0x0000, 0x0000, 0x0000,
   0x0000, 0x0000, 0xffff, 0xffff, 0xffff, 0xffff, 0x0000, 0x0000, 0x0000,
   0x0000, 0x0000, 0x0000, 0x0000, 0x0000, 0x0000, 0x0000, 0x0000, 0x0000,
   0xffff, 0xffff, 0xffff, 0xffff, 0x0000, 0x0000, 0x0000, 0x0000, 0x0000,
   0x0000 };
